<svg width="53" height="42" viewBox="0 0 53 42" fill="none" xmlns="http://www.w3.org/2000/svg">
<path fill-rule="evenodd" clip-rule="evenodd" d="M1.20343 27.1904C0.408082 25.1988 -0.000349293 23.0737 2.24135e-07 20.9291C2.24135e-07 9.36579 11.7203 0 26.1614 0C40.6025 0 52.3228 9.36579 52.3228 20.9291C52.2967 24.6283 51.1136 28.2265 48.9393 31.2193L52.1484 37.4108C52.4255 37.9779 52.336 38.6559 51.9212 39.1316C51.5063 39.6073 50.8469 39.7883 50.2474 39.591L42.4513 37.3062C37.5598 40.3307 31.9122 41.9089 26.1614 41.8583C25.8998 41.8583 25.6382 41.8583 25.3766 41.8408H25.3591C11.1006 40.176 5.78368 36.9909 1.20343 27.1904Z" fill="#4FBA6F"/>
<path d="M27.123 24.3631C29.0494 24.3631 30.6111 22.8014 30.6111 20.8749C30.6111 18.9484 29.0494 17.3867 27.123 17.3867C25.1965 17.3867 23.6348 18.9484 23.6348 20.8749C23.6348 22.8014 25.1965 24.3631 27.123 24.3631Z" fill="white"/>
<path d="M41.0741 24.3631C43.0006 24.3631 44.5623 22.8014 44.5623 20.8749C44.5623 18.9484 43.0006 17.3867 41.0741 17.3867C39.1477 17.3867 37.5859 18.9484 37.5859 20.8749C37.5859 22.8014 39.1477 24.3631 41.0741 24.3631Z" fill="white"/>
<path d="M13.1698 24.3631C15.0963 24.3631 16.658 22.8014 16.658 20.8749C16.658 18.9484 15.0963 17.3867 13.1698 17.3867C11.2434 17.3867 9.68164 18.9484 9.68164 20.8749C9.68164 22.8014 11.2434 24.3631 13.1698 24.3631Z" fill="white"/>
</svg>
